# xmcd
#
# Track frame offsets:
#	150
#	16443
#	35647
#	54916
#	70712
#	86149
#	106576
#	128238
#	146692
#	164190
#	180596
#	197186
#
# Disc length: 2799 seconds
#
# Revision: 0
# Processed by: cddbd v1.5.1PL2 Copyright (c) Steve Scherf et al.
# Submitted via: dBpowerAMP V4.0
#
DISCID=a80aed0c
DTITLE=I-5 Entertainment - Hors D'oeurves
DYEAR=2005
DGENRE=Rap
TTITLE0=Kick It 2 Night - Young Boss ft. Mr. Daem
TTITLE1=Dippn' - On Point
TTITLE2=Thinkn' Out Loud - Young Boss, Mr. Daem, On Point
TTITLE3=Come Back 2 Me - Ashley Ft. Mr. Daem and Young Boss
TTITLE4=Gust Of Wind - Young Boss
TTITLE5=Top Notch - Mr. Daem Ft. On Point
TTITLE6=The Spot - On Point
TTITLE7=Saucee (Talkn' Bout You) - Young Boss
TTITLE8=Bad Girl - Mr. Daem
TTITLE9=Hell's Kitchen (Bad Thangs) - Young Boss Ft. Mr. Daem
TTITLE10=Ready 4 War - On Point Ft. Mr. Daem
TTITLE11=Fam, Fans And Friends - On Point
EXTD=
EXTT0=
EXTT1=
EXTT2=
EXTT3=
EXTT4=
EXTT5=
EXTT6=
EXTT7=
EXTT8=
EXTT9=
EXTT10=
EXTT11=
PLAYORDER=
